<svg xmlns="http://www.w3.org/2000/svg" xmlns:xlink="http://www.w3.org/1999/xlink" width="234" zoomAndPan="magnify" viewBox="0 0 175.5 124.499996" height="166" preserveAspectRatio="xMidYMid meet" version="1.0"><defs><clipPath id="97ea8f5426"><path d="M 0.101562 0 L 67.332031 0 L 67.332031 77.6875 L 0.101562 77.6875 Z M 0.101562 0 " clip-rule="nonzero"/></clipPath><clipPath id="f9a2853154"><path d="M 107.34375 0 L 174.363281 0 L 174.363281 77.6875 L 107.34375 77.6875 Z M 107.34375 0 " clip-rule="nonzero"/></clipPath><clipPath id="23962b964e"><path d="M 53.65625 47 L 120.886719 47 L 120.886719 86 L 53.65625 86 Z M 53.65625 47 " clip-rule="nonzero"/></clipPath><clipPath id="4ece321c4a"><path d="M 53.65625 85 L 120.886719 85 L 120.886719 123.253906 L 53.65625 123.253906 Z M 53.65625 85 " clip-rule="nonzero"/></clipPath></defs><g clip-path="url(#97ea8f5426)"><path fill="#00bf63" d="M 63.027344 41.019531 C 59.695312 39.128906 55.707031 39.046875 52.113281 40.207031 C 49.777344 40.902344 47.597656 42.132812 45.769531 43.726562 C 44.871094 42.871094 43.859375 42.140625 42.710938 41.597656 C 39.171875 39.957031 34.972656 40.246094 31.371094 41.5 C 30.261719 41.9375 29.210938 42.523438 28.234375 43.203125 C 28.503906 42.609375 28.753906 41.9375 29.011719 41.144531 C 31.648438 32.148438 31.816406 25.773438 38.226562 18.257812 C 38.304688 18.324219 38.378906 18.390625 38.460938 18.449219 C 38.808594 18.703125 39.253906 18.832031 39.667969 18.914062 C 40.28125 19.035156 40.878906 19.078125 41.492188 19.113281 C 43.085938 19.140625 45.417969 19.328125 46.890625 18.472656 C 47.566406 18.453125 48.242188 18.433594 48.917969 18.40625 L 51.050781 18.324219 C 51.226562 18.316406 51.675781 18.300781 51.847656 18.292969 C 53.414062 18.324219 54.378906 16.773438 54.707031 15.667969 C 54.773438 15.359375 54.742188 15.023438 54.695312 14.722656 C 54.542969 13.910156 54.230469 13.15625 53.882812 12.417969 C 54.167969 12.191406 54.453125 11.960938 54.730469 11.726562 C 55.085938 11.421875 55.617188 10.988281 55.945312 10.667969 C 56.839844 9.742188 56.882812 8.007812 56.101562 7.183594 C 55.175781 5.992188 54.109375 4.632812 53.121094 3.492188 C 53.621094 4.46875 54.277344 5.664062 54.820312 6.621094 L 55.410156 7.648438 C 55.648438 7.964844 55.714844 8.40625 55.640625 8.820312 C 55.574219 9.222656 55.378906 9.601562 55.113281 9.835938 L 53.925781 10.722656 C 53.515625 11.035156 53.109375 11.355469 52.710938 11.683594 C 51.914062 12.339844 51.132812 13.011719 50.335938 13.667969 C 50.089844 13.910156 49.683594 13.921875 49.359375 13.851562 C 49.25 13.828125 49.171875 13.796875 49.082031 13.761719 C 49.050781 13.722656 49.019531 13.683594 48.988281 13.640625 C 49.84375 12.886719 52.496094 10.496094 52.871094 10.171875 C 53.714844 9.433594 54 8.152344 53.535156 7.128906 C 52.949219 6.003906 51.160156 2.679688 50.550781 1.535156 C 49.964844 0.578125 48.730469 0.269531 47.679688 0.410156 C 47.621094 0.414062 47.5625 0.425781 47.503906 0.4375 L 47.417969 0.457031 L 47.347656 0.472656 L 46.578125 0.648438 C 46.570312 0.644531 46.566406 0.640625 46.566406 0.640625 C 46.144531 0.191406 45.472656 0.0078125 44.882812 0.183594 L 44.796875 0.210938 L 44.621094 0.265625 L 44.273438 0.375 C 44.273438 0.375 44 0.460938 43.796875 0.523438 C 43.671875 0.46875 43.535156 0.414062 43.535156 0.414062 C 43.09375 0.207031 42.589844 0.296875 42.144531 0.394531 C 41.257812 0.644531 40.445312 1.109375 39.707031 1.574219 C 37.40625 3.058594 35.375 4.839844 33.289062 6.574219 C 32.523438 7.210938 31.765625 7.851562 30.976562 8.445312 C 30.433594 8.847656 29.863281 9.191406 29.320312 9.609375 C 28.453125 10.25 27.785156 11.1875 27.1875 12.082031 C 26.796875 12.671875 26.460938 13.292969 26.144531 13.886719 C 25.535156 15.050781 24.882812 16.199219 24.15625 17.273438 C 23.425781 18.34375 22.515625 19.21875 21.574219 20.125 C 21.101562 20.570312 19.839844 21.792969 19.394531 22.222656 C 16.726562 24.855469 14.269531 27.695312 12.101562 30.753906 C 9.75 34.117188 7.628906 37.609375 6.003906 41.394531 C 5.179688 43.210938 4.585938 45.226562 3.898438 47.066406 C 3.179688 49.03125 1.195312 50.144531 0.59375 52.191406 C 0.101562 53.667969 0.589844 54.988281 1.175781 56.339844 C 1.523438 57.136719 1.84375 57.917969 2.296875 58.714844 C 3.394531 60.753906 5.242188 62.199219 7.371094 63.007812 C 9.890625 63.953125 12.171875 64.878906 14.273438 66.480469 C 15.042969 67.046875 15.824219 67.769531 16.632812 68.359375 C 20.285156 71.089844 24.742188 72.609375 29.15625 73.445312 C 37.164062 74.882812 45.5 74.601562 53.320312 72.339844 C 54.082031 73.183594 54.832031 74.039062 55.578125 74.914062 C 56.253906 75.691406 57.117188 76.746094 57.816406 77.507812 C 57.789062 73.101562 53.792969 67.917969 49.425781 67.039062 C 50.042969 68.347656 50.859375 69.488281 51.761719 70.570312 C 49.617188 71.027344 47.457031 71.375 45.289062 71.59375 C 41.363281 71.972656 37.40625 71.925781 33.488281 71.5625 C 28.210938 71.019531 22.828125 69.777344 18.421875 66.746094 C 17.457031 66.074219 16.640625 65.328125 15.664062 64.605469 C 14.511719 63.757812 13.292969 63.050781 12.019531 62.4375 C 10.1875 61.511719 8.265625 61.109375 6.589844 60.113281 C 5 59.136719 4.164062 57.722656 3.390625 55.914062 C 3.148438 55.359375 2.855469 54.75 2.695312 54.175781 C 2.34375 53.09375 2.773438 52.332031 3.460938 51.441406 C 3.875 50.921875 4.347656 50.417969 4.761719 49.851562 C 5.207031 49.25 5.59375 48.554688 5.863281 47.863281 C 6.574219 45.929688 7.078125 44.0625 7.894531 42.195312 C 9.398438 38.554688 11.441406 35.101562 13.660156 31.84375 C 15.726562 28.859375 18.085938 26.0625 20.636719 23.480469 C 21.070312 23.039062 22.332031 21.8125 22.78125 21.363281 C 23.761719 20.40625 24.78125 19.382812 25.542969 18.214844 C 26.304688 17.054688 26.960938 15.855469 27.578125 14.632812 C 28.027344 13.738281 28.476562 12.9375 29.054688 12.144531 C 29.410156 11.65625 29.769531 11.1875 30.265625 10.820312 C 31.050781 10.21875 31.941406 9.648438 32.6875 8.996094 C 34.238281 7.703125 35.734375 6.347656 37.277344 5.070312 C 38.792969 3.855469 40.3125 2.546875 42.066406 1.761719 C 42.363281 1.640625 42.707031 1.535156 43 1.542969 C 43.175781 1.613281 43.570312 1.765625 43.738281 1.835938 C 44.0625 1.734375 44.644531 1.554688 44.96875 1.449219 C 45.007812 1.4375 45.195312 1.382812 45.222656 1.371094 C 45.332031 1.339844 45.453125 1.351562 45.554688 1.40625 C 45.605469 1.429688 45.648438 1.46875 45.6875 1.507812 C 45.808594 1.628906 46.058594 1.886719 46.183594 2.011719 C 46.476562 1.9375 47.378906 1.738281 47.695312 1.660156 C 48.203125 1.542969 48.878906 1.636719 49.277344 1.9375 C 49.363281 2.003906 49.4375 2.082031 49.488281 2.175781 C 49.589844 2.371094 51.75 6.390625 51.902344 6.683594 C 51.996094 6.867188 52.207031 7.25 52.304688 7.433594 C 52.632812 7.945312 52.585938 8.652344 52.1875 9.105469 C 51.765625 9.535156 48.660156 12.265625 48.066406 12.808594 C 47.8125 12.96875 47.46875 12.941406 47.242188 12.746094 L 47.179688 12.691406 L 47.058594 12.585938 C 46.960938 12.503906 46.820312 12.382812 46.65625 12.246094 C 47.046875 12.222656 47.429688 12.082031 47.730469 11.820312 C 48.050781 11.503906 48.355469 11.167969 48.664062 10.839844 C 48.882812 10.601562 49.316406 10.121094 49.527344 9.878906 C 49.839844 9.5 50.226562 9.152344 50.394531 8.679688 C 50.601562 8.125 50.53125 7.488281 50.226562 7.015625 L 50.246094 7.0625 C 49.785156 6.152344 49.296875 5.261719 48.71875 4.414062 C 48.878906 5.425781 49.136719 6.410156 49.421875 7.386719 C 49.578125 7.730469 49.527344 8.148438 49.285156 8.429688 C 48.800781 8.921875 48.230469 9.488281 47.761719 10 C 47.476562 10.308594 47.191406 10.613281 46.917969 10.929688 C 46.816406 11.015625 46.691406 11.074219 46.554688 11.097656 C 46.394531 11.121094 46.210938 11.09375 46.0625 11.003906 C 45.609375 10.8125 45.152344 10.632812 44.6875 10.464844 C 45.019531 10.359375 45.332031 10.203125 45.621094 10.003906 C 46.035156 9.695312 46.367188 9.238281 46.714844 8.863281 C 46.792969 8.773438 47.003906 8.53125 47.074219 8.445312 C 47.386719 8.097656 47.59375 7.640625 47.492188 7.15625 C 47.464844 7.042969 47.421875 6.972656 47.382812 6.890625 C 46.851562 5.855469 46.308594 4.839844 45.640625 3.859375 C 45.855469 5.058594 46.1875 6.214844 46.550781 7.363281 C 46.5625 7.394531 46.542969 7.355469 46.542969 7.355469 C 46.535156 7.324219 46.527344 7.398438 46.496094 7.449219 C 46.429688 7.585938 46.261719 7.714844 46.152344 7.824219 C 45.808594 8.152344 45.441406 8.511719 45.109375 8.847656 C 44.660156 9.265625 43.882812 9.476562 43.3125 9.371094 C 42.902344 9.273438 42.339844 9.136719 41.9375 9.046875 C 41.644531 8.960938 41.375 8.875 41.210938 8.644531 C 41.199219 8.632812 41.199219 8.617188 41.1875 8.613281 C 41.1875 8.613281 41.1875 8.609375 41.1875 8.613281 C 41.1875 8.617188 41.1875 8.613281 41.183594 8.636719 C 41.101562 8.023438 41.445312 7.351562 41.945312 6.972656 C 42.125 6.835938 42.339844 6.730469 42.589844 6.707031 C 42.351562 6.621094 42.074219 6.636719 41.816406 6.714844 C 40.878906 7.011719 40.046875 8.21875 40.441406 9.101562 C 40.414062 9.191406 40.390625 9.285156 40.367188 9.371094 C 40.28125 9.6875 40.214844 9.941406 40.121094 10.191406 C 39.902344 10.804688 39.628906 11.316406 39.394531 12.019531 C 40.269531 12.007812 40.984375 11.414062 41.285156 10.601562 C 41.363281 10.390625 41.402344 10.183594 41.410156 9.980469 C 41.808594 10.164062 42.257812 10.277344 42.664062 10.421875 C 42.890625 10.507812 43.125 10.5625 43.359375 10.589844 C 43.507812 10.691406 43.667969 10.792969 43.828125 10.898438 C 43.894531 11.320312 44.117188 11.714844 44.449219 11.984375 C 44.492188 12.023438 44.714844 12.207031 44.761719 12.25 L 45.753906 13.101562 C 45.941406 13.253906 46.351562 13.621094 46.535156 13.757812 C 46.9375 14.070312 47.460938 14.195312 47.960938 14.132812 C 48.003906 14.246094 48.054688 14.363281 48.125 14.480469 C 48.1875 14.582031 48.269531 14.6875 48.367188 14.757812 C 48.878906 15.132812 49.546875 15.164062 50.136719 15.027344 C 50.363281 14.980469 50.59375 14.886719 50.800781 14.761719 C 50.894531 15.429688 51.070312 16.078125 51.253906 16.730469 C 51.390625 15.789062 51.542969 14.789062 51.933594 13.941406 C 51.941406 13.925781 51.949219 13.910156 51.957031 13.890625 C 52.359375 13.585938 52.761719 13.28125 53.164062 12.976562 C 53.527344 13.722656 53.855469 14.515625 53.882812 15.339844 C 53.882812 15.394531 53.878906 15.453125 53.863281 15.503906 C 53.863281 15.507812 53.863281 15.511719 53.863281 15.507812 L 53.878906 15.480469 C 53.539062 16.347656 52.988281 17.246094 52.046875 17.375 C 51.371094 17.414062 49.578125 17.515625 48.875 17.554688 C 48.527344 17.574219 48.179688 17.597656 47.832031 17.617188 C 48.160156 17.179688 48.390625 16.664062 48.5 16.152344 C 47.984375 16.816406 47.371094 17.429688 46.578125 17.722656 C 45.800781 17.984375 44.992188 17.953125 44.152344 17.949219 C 43.652344 17.9375 42.917969 17.917969 42.40625 17.90625 C 41.441406 17.882812 40.382812 17.917969 39.433594 17.792969 C 38.796875 17.710938 38.28125 17.234375 37.792969 16.8125 C 37.363281 16.425781 36.949219 16.003906 36.503906 15.59375 C 36.761719 16.203125 37.0625 16.824219 37.449219 17.378906 C 32.207031 22.234375 30.367188 27.710938 29.066406 34.566406 C 28.496094 37.308594 28.15625 40.203125 27.347656 42.855469 C 27.203125 43.367188 27.007812 43.859375 26.773438 44.335938 C 25.941406 45.058594 25.175781 45.863281 24.511719 46.746094 C 23.640625 47.941406 23 49.304688 22.5625 50.707031 C 22.335938 51.445312 22.171875 52.199219 22.089844 52.960938 C 22.449219 52.285156 22.820312 51.632812 23.222656 51.007812 C 23.964844 49.863281 24.785156 48.785156 25.757812 47.839844 C 26.335938 47.296875 26.964844 46.792969 27.613281 46.328125 C 29.054688 45.304688 30.570312 44.457031 32.210938 43.875 C 35.292969 42.980469 38.777344 42.601562 41.84375 43.652344 C 45.121094 44.804688 47.472656 47.5 49.988281 49.847656 C 49.285156 48.410156 48.472656 46.972656 47.496094 45.675781 C 48.742188 44.609375 50.101562 43.6875 51.578125 42.996094 C 55.117188 41.339844 58.726562 40.796875 62.484375 42.195312 C 63.386719 42.523438 64.273438 42.960938 65.105469 43.457031 C 65.945312 43.96875 66.757812 44.554688 67.542969 45.199219 C 66.417969 43.507812 64.871094 42.054688 63.027344 41.019531 Z M 49.132812 13.816406 C 49.117188 13.800781 49.105469 13.785156 49.09375 13.773438 C 49.109375 13.785156 49.121094 13.796875 49.132812 13.8125 C 49.136719 13.816406 49.136719 13.820312 49.132812 13.816406 Z M 49.132812 13.816406 " fill-opacity="1" fill-rule="nonzero"/></g><path fill="#00bf63" d="M 35.203125 59.847656 C 31.949219 59.59375 28.992188 58.851562 25.769531 57.96875 C 26.261719 58.519531 26.824219 58.996094 27.410156 59.441406 C 33.15625 63.679688 42.007812 63.660156 47.398438 58.839844 C 43.382812 59.652344 39.28125 60.222656 35.203125 59.847656 Z M 35.203125 59.847656 " fill-opacity="1" fill-rule="nonzero"/><g clip-path="url(#f9a2853154)"><path fill="#00bf63" d="M 111.648438 41.019531 C 114.980469 39.128906 118.96875 39.046875 122.5625 40.207031 C 124.898438 40.902344 127.078125 42.132812 128.90625 43.726562 C 129.804688 42.871094 130.816406 42.140625 131.964844 41.597656 C 135.503906 39.957031 139.707031 40.246094 143.304688 41.5 C 144.414062 41.9375 145.464844 42.523438 146.441406 43.203125 C 146.171875 42.609375 145.925781 41.9375 145.667969 41.144531 C 143.027344 32.148438 142.859375 25.773438 136.449219 18.257812 C 136.375 18.324219 136.296875 18.390625 136.21875 18.449219 C 135.867188 18.703125 135.421875 18.832031 135.007812 18.914062 C 134.394531 19.035156 133.796875 19.078125 133.183594 19.113281 C 131.589844 19.140625 129.257812 19.328125 127.785156 18.472656 C 127.109375 18.453125 126.433594 18.433594 125.761719 18.40625 L 123.628906 18.324219 C 123.449219 18.316406 123 18.300781 122.828125 18.292969 C 121.265625 18.324219 120.296875 16.773438 119.96875 15.667969 C 119.902344 15.359375 119.933594 15.023438 119.984375 14.722656 C 120.132812 13.910156 120.445312 13.15625 120.792969 12.417969 C 120.507812 12.191406 120.222656 11.960938 119.945312 11.726562 C 119.589844 11.421875 119.0625 10.988281 118.730469 10.667969 C 117.835938 9.742188 117.792969 8.007812 118.574219 7.183594 C 119.5 5.992188 120.570312 4.632812 121.554688 3.492188 C 121.054688 4.46875 120.398438 5.664062 119.855469 6.621094 L 119.265625 7.648438 C 119.027344 7.964844 118.960938 8.40625 119.035156 8.820312 C 119.101562 9.222656 119.296875 9.601562 119.5625 9.835938 L 120.75 10.722656 C 121.160156 11.035156 121.566406 11.355469 121.964844 11.683594 C 122.761719 12.339844 123.542969 13.011719 124.339844 13.667969 C 124.585938 13.910156 124.992188 13.921875 125.316406 13.851562 C 125.425781 13.828125 125.507812 13.796875 125.597656 13.761719 C 125.628906 13.722656 125.65625 13.683594 125.6875 13.640625 C 124.832031 12.886719 122.179688 10.496094 121.804688 10.171875 C 120.960938 9.433594 120.675781 8.152344 121.140625 7.128906 C 121.726562 6.003906 123.519531 2.679688 124.128906 1.535156 C 124.710938 0.578125 125.945312 0.269531 126.996094 0.410156 C 127.054688 0.414062 127.113281 0.425781 127.171875 0.4375 L 127.261719 0.457031 L 127.328125 0.472656 L 128.097656 0.648438 C 128.105469 0.644531 128.109375 0.640625 128.109375 0.640625 C 128.53125 0.191406 129.203125 0.0078125 129.792969 0.183594 L 129.882812 0.210938 L 130.054688 0.265625 L 130.402344 0.375 C 130.402344 0.375 130.675781 0.460938 130.878906 0.523438 C 131.007812 0.46875 131.144531 0.414062 131.144531 0.414062 C 131.582031 0.207031 132.085938 0.296875 132.535156 0.394531 C 133.417969 0.644531 134.234375 1.109375 134.96875 1.574219 C 137.269531 3.058594 139.300781 4.839844 141.386719 6.574219 C 142.152344 7.210938 142.910156 7.851562 143.699219 8.445312 C 144.242188 8.847656 144.8125 9.191406 145.355469 9.609375 C 146.222656 10.25 146.890625 11.1875 147.488281 12.082031 C 147.878906 12.671875 148.214844 13.292969 148.53125 13.886719 C 149.144531 15.050781 149.792969 16.199219 150.523438 17.273438 C 151.25 18.34375 152.160156 19.21875 153.101562 20.125 C 153.574219 20.570312 154.835938 21.792969 155.28125 22.222656 C 157.949219 24.855469 160.40625 27.695312 162.578125 30.753906 C 164.925781 34.117188 167.046875 37.609375 168.671875 41.394531 C 169.496094 43.210938 170.089844 45.226562 170.777344 47.066406 C 171.496094 49.03125 173.480469 50.144531 174.082031 52.191406 C 174.574219 53.667969 174.085938 54.988281 173.503906 56.339844 C 173.152344 57.136719 172.832031 57.917969 172.378906 58.714844 C 171.28125 60.753906 169.433594 62.199219 167.304688 63.007812 C 164.785156 63.953125 162.503906 64.878906 160.402344 66.480469 C 159.632812 67.046875 158.855469 67.769531 158.042969 68.359375 C 154.394531 71.089844 149.933594 72.609375 145.523438 73.445312 C 137.511719 74.882812 129.175781 74.601562 121.355469 72.339844 C 120.59375 73.183594 119.84375 74.039062 119.097656 74.914062 C 118.421875 75.691406 117.558594 76.746094 116.859375 77.507812 C 116.886719 73.101562 120.882812 67.917969 125.25 67.039062 C 124.632812 68.347656 123.816406 69.488281 122.917969 70.570312 C 125.058594 71.027344 127.21875 71.375 129.386719 71.59375 C 133.3125 71.972656 137.269531 71.925781 141.1875 71.5625 C 146.464844 71.019531 151.847656 69.777344 156.253906 66.746094 C 157.21875 66.074219 158.035156 65.328125 159.011719 64.605469 C 160.164062 63.757812 161.382812 63.050781 162.65625 62.4375 C 164.488281 61.511719 166.410156 61.109375 168.085938 60.113281 C 169.675781 59.136719 170.515625 57.722656 171.289062 55.914062 C 171.527344 55.359375 171.820312 54.75 171.980469 54.175781 C 172.332031 53.09375 171.902344 52.332031 171.214844 51.441406 C 170.800781 50.921875 170.328125 50.417969 169.914062 49.851562 C 169.46875 49.25 169.082031 48.554688 168.8125 47.863281 C 168.101562 45.929688 167.597656 44.0625 166.785156 42.195312 C 165.277344 38.554688 163.234375 35.101562 161.015625 31.84375 C 158.949219 28.859375 156.589844 26.0625 154.039062 23.480469 C 153.605469 23.039062 152.34375 21.8125 151.894531 21.363281 C 150.917969 20.40625 149.894531 19.382812 149.132812 18.214844 C 148.371094 17.054688 147.71875 15.855469 147.097656 14.632812 C 146.648438 13.738281 146.199219 12.9375 145.621094 12.144531 C 145.265625 11.65625 144.90625 11.1875 144.414062 10.820312 C 143.628906 10.21875 142.738281 9.648438 141.988281 8.996094 C 140.441406 7.703125 138.941406 6.347656 137.398438 5.070312 C 135.882812 3.855469 134.363281 2.546875 132.609375 1.761719 C 132.3125 1.640625 131.96875 1.535156 131.675781 1.542969 C 131.503906 1.613281 131.105469 1.765625 130.9375 1.835938 C 130.613281 1.734375 130.03125 1.554688 129.707031 1.449219 C 129.667969 1.4375 129.480469 1.382812 129.453125 1.371094 C 129.34375 1.339844 129.222656 1.351562 129.121094 1.40625 C 129.070312 1.429688 129.027344 1.46875 128.988281 1.507812 C 128.867188 1.628906 128.617188 1.886719 128.496094 2.011719 C 128.199219 1.9375 127.296875 1.738281 126.984375 1.660156 C 126.472656 1.542969 125.796875 1.636719 125.398438 1.9375 C 125.3125 2.003906 125.238281 2.082031 125.1875 2.175781 C 125.085938 2.371094 122.929688 6.390625 122.773438 6.683594 C 122.679688 6.867188 122.46875 7.25 122.371094 7.433594 C 122.042969 7.945312 122.089844 8.652344 122.492188 9.105469 C 122.910156 9.535156 126.019531 12.265625 126.613281 12.808594 C 126.863281 12.96875 127.210938 12.941406 127.433594 12.746094 L 127.496094 12.691406 L 127.621094 12.585938 C 127.714844 12.503906 127.855469 12.382812 128.019531 12.246094 C 127.628906 12.222656 127.246094 12.082031 126.945312 11.820312 C 126.625 11.503906 126.320312 11.167969 126.011719 10.839844 C 125.792969 10.601562 125.359375 10.121094 125.148438 9.878906 C 124.835938 9.5 124.449219 9.152344 124.28125 8.679688 C 124.074219 8.125 124.144531 7.488281 124.449219 7.015625 L 124.429688 7.0625 C 124.894531 6.152344 125.378906 5.261719 125.957031 4.414062 C 125.796875 5.425781 125.539062 6.410156 125.253906 7.386719 C 125.097656 7.730469 125.148438 8.148438 125.394531 8.429688 C 125.878906 8.921875 126.445312 9.488281 126.917969 10 C 127.199219 10.308594 127.484375 10.613281 127.761719 10.929688 C 127.859375 11.015625 127.984375 11.074219 128.121094 11.097656 C 128.28125 11.121094 128.464844 11.09375 128.613281 11.003906 C 129.066406 10.8125 129.527344 10.632812 129.988281 10.464844 C 129.660156 10.359375 129.34375 10.203125 129.054688 10.003906 C 128.640625 9.695312 128.308594 9.238281 127.960938 8.863281 C 127.882812 8.773438 127.675781 8.53125 127.601562 8.445312 C 127.289062 8.097656 127.082031 7.640625 127.183594 7.15625 C 127.210938 7.042969 127.253906 6.972656 127.292969 6.890625 C 127.824219 5.855469 128.367188 4.839844 129.035156 3.859375 C 128.824219 5.058594 128.488281 6.214844 128.125 7.363281 C 128.113281 7.394531 128.132812 7.355469 128.132812 7.355469 C 128.140625 7.324219 128.152344 7.398438 128.179688 7.449219 C 128.246094 7.585938 128.414062 7.714844 128.523438 7.824219 C 128.867188 8.152344 129.234375 8.511719 129.570312 8.847656 C 130.015625 9.265625 130.792969 9.476562 131.367188 9.371094 C 131.773438 9.273438 132.335938 9.136719 132.738281 9.046875 C 133.035156 8.960938 133.300781 8.875 133.46875 8.644531 C 133.476562 8.632812 133.476562 8.617188 133.488281 8.613281 C 133.488281 8.613281 133.488281 8.609375 133.488281 8.613281 C 133.488281 8.617188 133.488281 8.613281 133.492188 8.636719 C 133.574219 8.023438 133.230469 7.351562 132.730469 6.972656 C 132.550781 6.835938 132.339844 6.730469 132.089844 6.707031 C 132.324219 6.621094 132.601562 6.636719 132.859375 6.714844 C 133.796875 7.011719 134.628906 8.21875 134.234375 9.101562 C 134.261719 9.191406 134.285156 9.285156 134.3125 9.371094 C 134.394531 9.6875 134.464844 9.941406 134.554688 10.191406 C 134.773438 10.804688 135.050781 11.316406 135.28125 12.019531 C 134.40625 12.007812 133.691406 11.414062 133.390625 10.601562 C 133.3125 10.390625 133.273438 10.183594 133.265625 9.980469 C 132.867188 10.164062 132.417969 10.277344 132.015625 10.421875 C 131.785156 10.507812 131.550781 10.5625 131.320312 10.589844 C 131.167969 10.691406 131.007812 10.792969 130.847656 10.898438 C 130.78125 11.320312 130.558594 11.714844 130.226562 11.984375 C 130.1875 12.023438 129.960938 12.207031 129.917969 12.25 L 128.921875 13.101562 C 128.738281 13.253906 128.324219 13.621094 128.144531 13.757812 C 127.738281 14.070312 127.214844 14.195312 126.714844 14.132812 C 126.671875 14.246094 126.621094 14.363281 126.550781 14.480469 C 126.492188 14.582031 126.40625 14.6875 126.308594 14.757812 C 125.796875 15.132812 125.128906 15.164062 124.539062 15.027344 C 124.3125 14.980469 124.082031 14.886719 123.875 14.761719 C 123.78125 15.429688 123.605469 16.078125 123.421875 16.730469 C 123.289062 15.789062 123.132812 14.789062 122.742188 13.941406 C 122.734375 13.925781 122.726562 13.910156 122.722656 13.890625 C 122.316406 13.585938 121.914062 13.28125 121.511719 12.976562 C 121.148438 13.722656 120.820312 14.515625 120.792969 15.339844 C 120.792969 15.394531 120.800781 15.453125 120.8125 15.503906 C 120.8125 15.507812 120.8125 15.511719 120.8125 15.507812 L 120.796875 15.480469 C 121.136719 16.347656 121.6875 17.246094 122.628906 17.375 C 123.304688 17.414062 125.097656 17.515625 125.800781 17.554688 C 126.148438 17.574219 126.496094 17.597656 126.84375 17.617188 C 126.515625 17.179688 126.285156 16.664062 126.175781 16.152344 C 126.695312 16.816406 127.304688 17.429688 128.101562 17.722656 C 128.875 17.984375 129.683594 17.953125 130.523438 17.949219 C 131.027344 17.9375 131.757812 17.917969 132.269531 17.90625 C 133.234375 17.882812 134.292969 17.917969 135.242188 17.792969 C 135.878906 17.710938 136.394531 17.234375 136.882812 16.8125 C 137.3125 16.425781 137.726562 16.003906 138.171875 15.59375 C 137.914062 16.203125 137.617188 16.824219 137.226562 17.378906 C 142.46875 22.234375 144.308594 27.710938 145.609375 34.566406 C 146.183594 37.308594 146.519531 40.203125 147.328125 42.855469 C 147.472656 43.367188 147.671875 43.859375 147.902344 44.335938 C 148.734375 45.058594 149.5 45.863281 150.164062 46.746094 C 151.035156 47.941406 151.675781 49.304688 152.113281 50.707031 C 152.339844 51.445312 152.503906 52.199219 152.585938 52.960938 C 152.226562 52.285156 151.855469 51.632812 151.453125 51.007812 C 150.710938 49.863281 149.890625 48.785156 148.917969 47.839844 C 148.339844 47.296875 147.710938 46.792969 147.0625 46.328125 C 145.621094 45.304688 144.105469 44.457031 142.464844 43.875 C 139.386719 42.980469 135.898438 42.601562 132.832031 43.652344 C 129.554688 44.804688 127.203125 47.5 124.6875 49.847656 C 125.390625 48.410156 126.203125 46.972656 127.179688 45.675781 C 125.9375 44.609375 124.574219 43.6875 123.097656 42.996094 C 119.558594 41.339844 115.953125 40.796875 112.195312 42.195312 C 111.289062 42.523438 110.402344 42.960938 109.574219 43.457031 C 108.730469 43.96875 107.921875 44.554688 107.132812 45.199219 C 108.257812 43.507812 109.804688 42.054688 111.648438 41.019531 Z M 125.546875 13.816406 C 125.558594 13.800781 125.570312 13.785156 125.585938 13.773438 C 125.570312 13.785156 125.554688 13.796875 125.542969 13.8125 C 125.539062 13.816406 125.539062 13.820312 125.546875 13.816406 Z M 125.546875 13.816406 " fill-opacity="1" fill-rule="nonzero"/></g><path fill="#00bf63" d="M 139.476562 59.847656 C 142.726562 59.59375 145.683594 58.851562 148.90625 57.96875 C 148.414062 58.519531 147.851562 58.996094 147.265625 59.441406 C 141.519531 63.679688 132.667969 63.660156 127.277344 58.839844 C 131.292969 59.652344 135.394531 60.222656 139.476562 59.847656 Z M 139.476562 59.847656 " fill-opacity="1" fill-rule="nonzero"/><g clip-path="url(#23962b964e)"><path fill="#00bf63" d="M 116.363281 47.089844 C 114.902344 47.089844 113.445312 47.183594 111.996094 47.375 C 110.550781 47.566406 109.117188 47.851562 107.707031 48.226562 C 106.296875 48.605469 104.914062 49.074219 103.5625 49.628906 C 102.210938 50.1875 100.902344 50.828125 99.636719 51.558594 C 98.371094 52.285156 97.15625 53.09375 95.996094 53.980469 C 94.832031 54.867188 93.734375 55.824219 92.695312 56.855469 C 91.660156 57.882812 90.695312 58.976562 89.800781 60.132812 C 88.90625 61.289062 88.089844 62.496094 87.355469 63.757812 C 86.617188 62.496094 85.804688 61.289062 84.910156 60.132812 C 84.015625 58.976562 83.050781 57.882812 82.011719 56.855469 C 80.976562 55.824219 79.878906 54.867188 78.714844 53.980469 C 77.554688 53.09375 76.339844 52.285156 75.074219 51.558594 C 73.804688 50.828125 72.496094 50.1875 71.144531 49.628906 C 69.796875 49.074219 68.414062 48.605469 67.003906 48.226562 C 65.589844 47.851562 64.160156 47.566406 62.710938 47.375 C 61.261719 47.183594 59.808594 47.089844 58.347656 47.089844 C 58.046875 47.089844 57.746094 47.117188 57.449219 47.175781 C 57.15625 47.234375 56.867188 47.324219 56.589844 47.4375 C 56.308594 47.554688 56.046875 47.695312 55.792969 47.863281 C 55.542969 48.03125 55.3125 48.222656 55.097656 48.433594 C 54.886719 48.648438 54.695312 48.878906 54.527344 49.128906 C 54.359375 49.382812 54.21875 49.644531 54.101562 49.925781 C 53.988281 50.203125 53.898438 50.492188 53.839844 50.785156 C 53.78125 51.082031 53.753906 51.382812 53.753906 51.683594 C 53.753906 52.785156 53.804688 53.882812 53.914062 54.976562 C 54.019531 56.074219 54.183594 57.160156 54.394531 58.242188 C 54.609375 59.320312 54.878906 60.386719 55.195312 61.441406 C 55.515625 62.492188 55.886719 63.527344 56.308594 64.546875 C 56.726562 65.5625 57.199219 66.558594 57.714844 67.527344 C 58.234375 68.5 58.800781 69.441406 59.410156 70.355469 C 60.023438 71.273438 60.675781 72.15625 61.375 73.007812 C 62.074219 73.859375 62.8125 74.671875 63.589844 75.449219 C 64.367188 76.230469 65.183594 76.96875 66.035156 77.667969 C 66.882812 78.363281 67.769531 79.019531 68.683594 79.632812 C 69.597656 80.242188 70.539062 80.808594 71.511719 81.328125 C 72.484375 81.847656 73.476562 82.316406 74.492188 82.738281 C 75.511719 83.160156 76.546875 83.53125 77.597656 83.847656 C 78.652344 84.167969 79.71875 84.4375 80.796875 84.652344 C 81.878906 84.867188 82.964844 85.027344 84.0625 85.136719 C 85.15625 85.242188 86.253906 85.296875 87.355469 85.296875 C 88.457031 85.296875 89.554688 85.242188 90.648438 85.136719 C 91.746094 85.027344 92.832031 84.867188 93.910156 84.652344 C 94.992188 84.4375 96.058594 84.167969 97.109375 83.847656 C 98.164062 83.53125 99.199219 83.160156 100.214844 82.738281 C 101.234375 82.316406 102.226562 81.847656 103.199219 81.328125 C 104.167969 80.808594 105.113281 80.242188 106.027344 79.632812 C 106.941406 79.019531 107.824219 78.363281 108.675781 77.667969 C 109.527344 76.96875 110.339844 76.230469 111.121094 75.449219 C 111.898438 74.671875 112.636719 73.859375 113.335938 73.007812 C 114.03125 72.15625 114.6875 71.273438 115.296875 70.355469 C 115.910156 69.441406 116.476562 68.5 116.992188 67.527344 C 117.511719 66.558594 117.980469 65.5625 118.402344 64.546875 C 118.824219 63.527344 119.195312 62.492188 119.511719 61.441406 C 119.832031 60.386719 120.097656 59.320312 120.3125 58.242188 C 120.527344 57.160156 120.6875 56.074219 120.796875 54.976562 C 120.902344 53.882812 120.957031 52.785156 120.957031 51.683594 C 120.957031 51.382812 120.929688 51.082031 120.867188 50.785156 C 120.808594 50.492188 120.722656 50.203125 120.609375 49.925781 C 120.492188 49.644531 120.351562 49.382812 120.183594 49.128906 C 120.015625 48.878906 119.824219 48.648438 119.613281 48.433594 C 119.398438 48.222656 119.167969 48.03125 118.914062 47.863281 C 118.664062 47.695312 118.398438 47.554688 118.121094 47.4375 C 117.84375 47.324219 117.554688 47.234375 117.257812 47.175781 C 116.964844 47.117188 116.664062 47.089844 116.363281 47.089844 Z M 63.484375 56.820312 C 64.628906 57.066406 65.746094 57.394531 66.839844 57.800781 C 67.9375 58.210938 68.996094 58.695312 70.023438 59.253906 C 71.050781 59.8125 72.03125 60.441406 72.96875 61.140625 C 73.90625 61.839844 74.785156 62.605469 75.613281 63.429688 C 76.441406 64.253906 77.203125 65.136719 77.90625 66.070312 C 78.605469 67.007812 79.238281 67.988281 79.796875 69.011719 C 80.359375 70.039062 80.84375 71.097656 81.253906 72.195312 C 81.664062 73.289062 81.992188 74.40625 82.242188 75.550781 C 81.097656 75.300781 79.980469 74.976562 78.882812 74.566406 C 77.789062 74.160156 76.726562 73.675781 75.699219 73.117188 C 74.671875 72.558594 73.691406 71.929688 72.753906 71.230469 C 71.820312 70.53125 70.9375 69.765625 70.109375 68.941406 C 69.28125 68.117188 68.519531 67.234375 67.816406 66.300781 C 67.117188 65.363281 66.484375 64.382812 65.925781 63.359375 C 65.363281 62.332031 64.878906 61.269531 64.472656 60.175781 C 64.0625 59.082031 63.734375 57.960938 63.484375 56.820312 Z M 92.492188 75.550781 C 92.742188 74.40625 93.070312 73.289062 93.476562 72.195312 C 93.886719 71.101562 94.371094 70.042969 94.929688 69.015625 C 95.492188 67.992188 96.121094 67.011719 96.820312 66.078125 C 97.519531 65.140625 98.285156 64.261719 99.109375 63.433594 C 99.9375 62.609375 100.816406 61.847656 101.75 61.144531 C 102.6875 60.445312 103.667969 59.816406 104.691406 59.257812 C 105.71875 58.695312 106.777344 58.214844 107.871094 57.804688 C 108.964844 57.398438 110.082031 57.070312 111.226562 56.820312 C 110.976562 57.960938 110.648438 59.078125 110.242188 60.175781 C 109.832031 61.269531 109.347656 62.328125 108.789062 63.355469 C 108.230469 64.378906 107.597656 65.359375 106.898438 66.292969 C 106.199219 67.230469 105.433594 68.109375 104.609375 68.9375 C 103.785156 69.761719 102.902344 70.523438 101.96875 71.226562 C 101.03125 71.925781 100.050781 72.554688 99.027344 73.113281 C 98 73.671875 96.941406 74.15625 95.847656 74.566406 C 94.75 74.972656 93.632812 75.300781 92.492188 75.550781 Z M 92.492188 75.550781 " fill-opacity="1" fill-rule="nonzero"/></g><path fill="#00bf63" d="M 87.355469 50.671875 C 88.625 50.671875 89.707031 50.222656 90.605469 49.324219 C 91.382812 48.546875 92.121094 47.734375 92.816406 46.882812 C 93.515625 46.03125 94.171875 45.148438 94.78125 44.234375 C 95.394531 43.320312 95.957031 42.375 96.476562 41.40625 C 96.996094 40.433594 97.464844 39.441406 97.886719 38.425781 C 98.308594 37.40625 98.679688 36.375 99 35.320312 C 99.316406 34.265625 99.585938 33.199219 99.800781 32.121094 C 100.015625 31.042969 100.175781 29.953125 100.285156 28.859375 C 100.390625 27.765625 100.445312 26.667969 100.445312 25.566406 C 100.445312 24.464844 100.390625 23.367188 100.285156 22.273438 C 100.175781 21.175781 100.015625 20.089844 99.800781 19.011719 C 99.585938 17.929688 99.316406 16.863281 99 15.8125 C 98.679688 14.757812 98.308594 13.722656 97.886719 12.707031 C 97.464844 11.691406 96.996094 10.695312 96.476562 9.726562 C 95.957031 8.753906 95.394531 7.8125 94.78125 6.898438 C 94.171875 5.984375 93.515625 5.101562 92.816406 4.25 C 92.121094 3.398438 91.382812 2.582031 90.605469 1.804688 C 90.390625 1.59375 90.15625 1.402344 89.90625 1.234375 C 89.65625 1.066406 89.390625 0.925781 89.113281 0.808594 C 88.835938 0.695312 88.546875 0.609375 88.25 0.546875 C 87.957031 0.488281 87.65625 0.460938 87.355469 0.460938 C 87.054688 0.460938 86.753906 0.488281 86.457031 0.546875 C 86.164062 0.609375 85.875 0.695312 85.597656 0.808594 C 85.316406 0.925781 85.054688 1.066406 84.800781 1.234375 C 84.550781 1.402344 84.320312 1.59375 84.105469 1.804688 C 83.328125 2.582031 82.589844 3.398438 81.890625 4.25 C 81.195312 5.101562 80.539062 5.984375 79.925781 6.898438 C 79.316406 7.8125 78.75 8.753906 78.230469 9.726562 C 77.714844 10.695312 77.242188 11.691406 76.824219 12.707031 C 76.402344 13.722656 76.03125 14.757812 75.710938 15.8125 C 75.390625 16.863281 75.125 17.929688 74.910156 19.011719 C 74.695312 20.089844 74.535156 21.175781 74.425781 22.273438 C 74.320312 23.367188 74.265625 24.464844 74.265625 25.566406 C 74.265625 26.667969 74.320312 27.765625 74.425781 28.859375 C 74.535156 29.953125 74.695312 31.042969 74.910156 32.121094 C 75.125 33.199219 75.390625 34.265625 75.710938 35.320312 C 76.03125 36.375 76.402344 37.40625 76.824219 38.425781 C 77.242188 39.441406 77.714844 40.433594 78.230469 41.40625 C 78.75 42.375 79.316406 43.320312 79.925781 44.234375 C 80.539062 45.148438 81.195312 46.03125 81.890625 46.882812 C 82.589844 47.734375 83.328125 48.546875 84.105469 49.324219 C 85.003906 50.222656 86.085938 50.671875 87.355469 50.671875 Z M 87.355469 12.3125 C 87.988281 13.296875 88.546875 14.320312 89.035156 15.382812 C 89.523438 16.445312 89.929688 17.539062 90.261719 18.660156 C 90.589844 19.78125 90.839844 20.917969 91.003906 22.078125 C 91.171875 23.234375 91.257812 24.398438 91.257812 25.566406 C 91.257812 26.734375 91.171875 27.898438 91.003906 29.054688 C 90.839844 30.210938 90.589844 31.351562 90.261719 32.472656 C 89.929688 33.59375 89.523438 34.6875 89.035156 35.75 C 88.546875 36.8125 87.988281 37.835938 87.355469 38.816406 C 86.722656 37.835938 86.160156 36.8125 85.675781 35.75 C 85.1875 34.6875 84.78125 33.59375 84.449219 32.472656 C 84.121094 31.351562 83.871094 30.210938 83.703125 29.054688 C 83.539062 27.898438 83.453125 26.734375 83.453125 25.566406 C 83.453125 24.398438 83.539062 23.234375 83.703125 22.078125 C 83.871094 20.917969 84.121094 19.78125 84.449219 18.660156 C 84.78125 17.539062 85.1875 16.445312 85.675781 15.382812 C 86.160156 14.320312 86.722656 13.296875 87.355469 12.3125 Z M 87.355469 12.3125 " fill-opacity="1" fill-rule="nonzero"/><g clip-path="url(#4ece321c4a)"><path fill="#00bf63" d="M 87.355469 102.074219 C 86.617188 100.8125 85.804688 99.605469 84.910156 98.449219 C 84.015625 97.292969 83.050781 96.199219 82.011719 95.171875 C 80.976562 94.140625 79.878906 93.183594 78.714844 92.296875 C 77.554688 91.410156 76.339844 90.601562 75.074219 89.875 C 73.804688 89.144531 72.496094 88.503906 71.144531 87.945312 C 69.796875 87.390625 68.414062 86.921875 67.003906 86.542969 C 65.589844 86.167969 64.160156 85.882812 62.710938 85.691406 C 61.261719 85.5 59.808594 85.40625 58.347656 85.40625 C 58.046875 85.40625 57.746094 85.433594 57.449219 85.492188 C 57.15625 85.550781 56.867188 85.640625 56.589844 85.753906 C 56.308594 85.871094 56.046875 86.011719 55.792969 86.179688 C 55.542969 86.347656 55.3125 86.539062 55.097656 86.75 C 54.886719 86.964844 54.695312 87.195312 54.527344 87.445312 C 54.359375 87.699219 54.21875 87.960938 54.101562 88.242188 C 53.988281 88.519531 53.898438 88.808594 53.839844 89.101562 C 53.78125 89.398438 53.753906 89.699219 53.753906 90 C 53.753906 91.101562 53.808594 92.199219 53.914062 93.292969 C 54.023438 94.386719 54.183594 95.476562 54.398438 96.554688 C 54.613281 97.632812 54.882812 98.699219 55.203125 99.75 C 55.523438 100.804688 55.890625 101.839844 56.3125 102.855469 C 56.734375 103.871094 57.207031 104.863281 57.722656 105.835938 C 58.242188 106.804688 58.808594 107.746094 59.417969 108.664062 C 60.03125 109.578125 60.6875 110.460938 61.382812 111.308594 C 62.082031 112.160156 62.820312 112.976562 63.597656 113.753906 C 64.375 114.53125 65.191406 115.269531 66.042969 115.964844 C 66.890625 116.664062 67.773438 117.320312 68.691406 117.929688 C 69.605469 118.542969 70.546875 119.105469 71.519531 119.625 C 72.488281 120.144531 73.480469 120.613281 74.5 121.035156 C 75.515625 121.453125 76.550781 121.824219 77.601562 122.144531 C 78.65625 122.464844 79.722656 122.730469 80.800781 122.945312 C 81.878906 123.160156 82.96875 123.320312 84.0625 123.429688 C 85.15625 123.535156 86.253906 123.589844 87.355469 123.589844 C 88.457031 123.589844 89.554688 123.535156 90.648438 123.429688 C 91.742188 123.320312 92.828125 123.160156 93.910156 122.945312 C 94.988281 122.730469 96.054688 122.464844 97.105469 122.144531 C 98.160156 121.824219 99.195312 121.453125 100.210938 121.035156 C 101.226562 120.613281 102.222656 120.144531 103.191406 119.625 C 104.164062 119.105469 105.105469 118.542969 106.019531 117.929688 C 106.933594 117.320312 107.816406 116.664062 108.667969 115.964844 C 109.519531 115.269531 110.332031 114.53125 111.109375 113.753906 C 111.890625 112.976562 112.628906 112.160156 113.324219 111.308594 C 114.023438 110.460938 114.679688 109.578125 115.289062 108.664062 C 115.902344 107.746094 116.46875 106.804688 116.984375 105.835938 C 117.503906 104.863281 117.976562 103.871094 118.394531 102.855469 C 118.816406 101.839844 119.1875 100.804688 119.507812 99.75 C 119.828125 98.699219 120.09375 97.632812 120.308594 96.554688 C 120.523438 95.476562 120.6875 94.386719 120.792969 93.292969 C 120.902344 92.199219 120.957031 91.101562 120.957031 90 C 120.957031 89.699219 120.929688 89.398438 120.867188 89.101562 C 120.808594 88.808594 120.722656 88.519531 120.609375 88.242188 C 120.492188 87.960938 120.351562 87.699219 120.183594 87.445312 C 120.015625 87.195312 119.824219 86.964844 119.613281 86.75 C 119.398438 86.539062 119.167969 86.347656 118.914062 86.179688 C 118.664062 86.011719 118.398438 85.871094 118.121094 85.753906 C 117.84375 85.640625 117.554688 85.550781 117.257812 85.492188 C 116.964844 85.433594 116.664062 85.40625 116.363281 85.40625 C 114.902344 85.40625 113.445312 85.5 111.996094 85.691406 C 110.550781 85.882812 109.117188 86.167969 107.707031 86.542969 C 106.296875 86.921875 104.914062 87.390625 103.5625 87.945312 C 102.210938 88.503906 100.902344 89.144531 99.636719 89.875 C 98.371094 90.601562 97.15625 91.410156 95.996094 92.296875 C 94.832031 93.183594 93.734375 94.140625 92.695312 95.171875 C 91.660156 96.199219 90.695312 97.292969 89.800781 98.449219 C 88.90625 99.605469 88.089844 100.8125 87.355469 102.074219 Z M 63.484375 95.136719 C 64.628906 95.382812 65.746094 95.710938 66.84375 96.121094 C 67.9375 96.527344 69 97.011719 70.023438 97.570312 C 71.050781 98.128906 72.03125 98.757812 72.96875 99.460938 C 73.90625 100.160156 74.789062 100.921875 75.613281 101.75 C 76.441406 102.574219 77.207031 103.457031 77.90625 104.390625 C 78.609375 105.328125 79.238281 106.308594 79.800781 107.332031 C 80.359375 108.359375 80.84375 109.417969 81.253906 110.515625 C 81.664062 111.609375 81.992188 112.726562 82.242188 113.871094 C 81.097656 113.621094 79.980469 113.296875 78.882812 112.886719 C 77.789062 112.480469 76.726562 111.996094 75.699219 111.4375 C 74.671875 110.878906 73.691406 110.246094 72.757812 109.546875 C 71.820312 108.847656 70.9375 108.085938 70.109375 107.257812 C 69.285156 106.433594 68.519531 105.550781 67.820312 104.617188 C 67.117188 103.679688 66.488281 102.699219 65.925781 101.675781 C 65.363281 100.648438 64.878906 99.589844 64.472656 98.492188 C 64.0625 97.398438 63.734375 96.277344 63.484375 95.136719 Z M 92.492188 113.871094 C 92.742188 112.730469 93.070312 111.609375 93.476562 110.515625 C 93.886719 109.421875 94.371094 108.363281 94.929688 107.335938 C 95.488281 106.3125 96.121094 105.332031 96.820312 104.394531 C 97.519531 103.460938 98.28125 102.578125 99.109375 101.753906 C 99.933594 100.925781 100.816406 100.164062 101.75 99.464844 C 102.6875 98.765625 103.667969 98.132812 104.691406 97.574219 C 105.714844 97.015625 106.777344 96.53125 107.871094 96.121094 C 108.964844 95.714844 110.082031 95.386719 111.226562 95.136719 C 110.976562 96.277344 110.648438 97.394531 110.238281 98.492188 C 109.832031 99.585938 109.347656 100.644531 108.789062 101.671875 C 108.226562 102.695312 107.597656 103.675781 106.898438 104.613281 C 106.199219 105.546875 105.433594 106.425781 104.609375 107.253906 C 103.78125 108.078125 102.902344 108.84375 101.964844 109.542969 C 101.03125 110.242188 100.050781 110.871094 99.027344 111.433594 C 98 111.992188 96.941406 112.476562 95.847656 112.886719 C 94.75 113.292969 93.632812 113.621094 92.492188 113.871094 Z M 92.492188 113.871094 " fill-opacity="1" fill-rule="nonzero"/></g></svg>